<?xml version="1.0" encoding="UTF-8"?>
<svg version="1.1" xmlns="http://www.w3.org/2000/svg" width="24" height="24">
<path d="M0 0 C3.375 0.0625 3.375 0.0625 7 1 C10.43014809 5.53664747 10.28143835 9.55885858 10 15 C8.35 15.66 6.7 16.32 5 17 C5 17.99 5 18.98 5 20 C4.01 20 3.02 20 2 20 C2 19.34 2 18.68 2 18 C1.34 18 0.68 18 0 18 C0 18.66 0 19.32 0 20 C-2.97 20 -5.94 20 -9 20 C-8.814375 19.195625 -8.62875 18.39125 -8.4375 17.5625 C-8.293125 16.716875 -8.14875 15.87125 -8 15 C-8.33 14.67 -8.66 14.34 -9 14 C-9 14.99 -9 15.98 -9 17 C-12.875 16.125 -12.875 16.125 -14 15 C-14.04092937 12.66702567 -14.04241723 10.33294775 -14 8 C-13.38125 7.7525 -12.7625 7.505 -12.125 7.25 C-9.62985717 5.78226892 -9.09872287 4.62003145 -8 2 C-7.67 1.67 -7.34 1.34 -7 1 C-5 1 -3 1 -1 1 C-0.67 0.67 -0.34 0.34 0 0 Z M-6.6875 4.375 C-8.2094457 5.91117258 -8.2094457 5.91117258 -8 8 C-9.98 8.99 -9.98 8.99 -12 10 C-11.67 11.32 -11.34 12.64 -11 14 C-10.34 14 -9.68 14 -9 14 C-9 12.68 -9 11.36 -9 10 C-4.71 10.33 -0.42 10.66 4 11 C4 11.99 4 12.98 4 14 C5.32 13.67 6.64 13.34 8 13 C7.67 10.69 7.34 8.38 7 6 C6.34 6.66 5.68 7.32 5 8 C1.875 8.125 1.875 8.125 -1 8 C-1.33 6.35 -1.66 4.7 -2 3 C-4.97517573 2.68416352 -4.97517573 2.68416352 -6.6875 4.375 Z M2 3 C2 3.66 2 4.32 2 5 C2.66 5 3.32 5 4 5 C4 4.34 4 3.68 4 3 C3.34 3 2.68 3 2 3 Z M-4 14 C-3 16 -3 16 -3 16 Z " fill="#000000" transform="translate(14,2)"/>
</svg>
